<?xml version="1.0" encoding="utf-8"?>
<!-- Generator: Adobe Illustrator 22.1.0, SVG Export Plug-In . SVG Version: 6.00 Build 0)  -->
<svg version="1.1" id="Layer_1" xmlns="http://www.w3.org/2000/svg" xmlns:xlink="http://www.w3.org/1999/xlink" x="0px" y="0px"
	 viewBox="0 0 612 792" style="enable-background:new 0 0 612 792;" xml:space="preserve">
<style type="text/css">
	.st0{fill:#CCCCCB;}
	.st1{fill:#DB3126;}
</style>
<g>
	<path d="M221,576.3L221,576.3c-5.7,0-10.3-4.6-10.3-10.3V452c0-5.7,4.6-10.3,10.3-10.3h0c5.7,0,10.3,4.6,10.3,10.3v114
		C231.3,571.7,226.7,576.3,221,576.3z"/>
	<rect x="210.7" y="566" width="30.8" height="10.3"/>
</g>
<g>
	<path d="M387.3,576.3L387.3,576.3c-5.7,0-10.3-4.6-10.3-10.3V452c0-5.7,4.6-10.3,10.3-10.3h0c5.7,0,10.3,4.6,10.3,10.3v114
		C397.7,571.7,393,576.3,387.3,576.3z"/>
	<rect x="377" y="566" width="30.8" height="10.3"/>
</g>
<g>
	<path d="M206,390.3L206,390.3c-9.4,0-17-7.6-17-17V267c0-9.3,7.6-17,17-17h0c9.3,0,17,7.6,17,17v106.3
		C223,382.7,215.4,390.3,206,390.3z"/>
	<circle class="st0" cx="206" cy="396" r="17.5"/>
</g>
<g>
	<path d="M404.8,387L404.8,387c-9.4,0-17-7.6-17-17V263.7c0-9.3,7.6-17,17-17h0c9.4,0,17,7.6,17,17V370
		C421.8,379.4,414.2,387,404.8,387z"/>
	<circle class="st0" cx="404.8" cy="392.7" r="17.5"/>
</g>
<circle class="st0" cx="305.7" cy="199.8" r="38.8"/>
<g>
	<path d="M309,458h-6c-25,0-45.5-20.5-45.5-45.5v-117c0-25,20.5-45.5,45.5-45.5h6c25,0,45.5,20.5,45.5,45.5v117
		C354.5,437.5,334,458,309,458z"/>
	<rect x="301" y="250" class="st1" width="9.3" height="90.5"/>
</g>
</svg>
